<?xml version="1.0" encoding="utf-8"?>
<!-- Generator: Adobe Illustrator 18.0.0, SVG Export Plug-In . SVG Version: 6.00 Build 0)  -->
<!DOCTYPE svg PUBLIC "-//W3C//DTD SVG 1.1//EN" "http://www.w3.org/Graphics/SVG/1.1/DTD/svg11.dtd">
<svg version="1.1" id="Capa_1" xmlns="http://www.w3.org/2000/svg" xmlns:xlink="http://www.w3.org/1999/xlink" x="0px" y="0px"
	 viewBox="0 0 289.2 112.5" enable-background="new 0 0 289.2 112.5" xml:space="preserve">
<path fill="#4DA6DE" d="M61.5,67.7c0,2.9-2.4,5.2-5.2,5.2c-2.9,0-5.2-2.4-5.2-5.2c0-2.9,2.4-5.2,5.2-5.2
	C59.2,62.4,61.5,64.8,61.5,67.7 M72.4,76.7H40.1V58.6h32.2V76.7z M63.1,67.7c0-3.8-3.1-6.9-6.9-6.9s-6.9,3.1-6.9,6.9
	c0,3.8,3.1,6.9,6.9,6.9S63.1,71.5,63.1,67.7 M38.9,79.1v5.3h34.8v-5.4l-1-1.3H40.1L38.9,79.1z M45.7,22.6h21.2h0.4h0v-2h0h-0.6
	c-0.9-4.2-4.5-7.5-9.1-8.1v-0.9h-0.2h0c0-0.6-0.5-1.1-1.1-1.1c-0.5,0-0.9,0.3-1.1,0.7c-0.1,0.1-0.1,0.3-0.1,0.4h-0.2h0v0.9
	c-4.5,0.5-8.2,3.8-9.1,8.1h-0.6h0v2h0H45.7z M73.6,55.8l-5.8-1.7H44.8l-5.9,1.7v1.7h34.8V55.8z M45.2,50.8l-0.5,0.9h0v1.3h23.2v-1.3
	l-0.6-0.9H45.2z M83.6,83.7L83,82.6v-1.3h0l0.7-0.8l-1.9-11.6l-1.9-1.4L78,68.9l-1.9,11.6l0.7,0.8l0,1.3l-0.7,1.2v1.9H56.3h0H36.5
	v-1.9l-0.7-1.2v-1.3l0.7-0.8l-1.9-11.6l-1.8-1.4l-1.9,1.4l-1.9,11.6l0.7,0.8h0v1.3l-0.7,1.2v1.9h-2.2l1.4,3.5v0.8
	c2-0.5,4.5-0.9,7.9-0.9c5.9,0,8.9,1.1,11.6,2c2.3,0.8,4.3,1.5,8.6,1.5c4.3,0,6.2-0.7,8.6-1.5c2.7-0.9,5.8-2,11.6-2
	c3.4,0,5.9,0.4,7.9,0.9v-0.8l1.4-3.5h-2.2V83.7z M68.3,47.4h-1v2.2h-11h-11v-2.2h-1v-1.3h0.8h0h0.2v-0.4l0.4-0.6V33.6l-0.4-0.8v-0.5
	h0.4v-5.5h10.6h10.6v5.5h0.4v0.5l-0.4,0.8v11.5l0.4,0.6v0.4h0.1h0.5h0.4V47.4z M51.2,30.9c0-0.9-0.8-1.7-1.7-1.7h-0.1
	c-1,0-1.7,0.7-1.7,1.7v1.4H48v0.5l-0.4,0.8v11.5l0.4,0.6v0.4h0.2h0h2.2h0.1h0.2v-0.4l0.4-0.6V33.6l-0.4-0.8v-0.5h0.4V30.9z
	 M59.6,31.5c0-1.8-1.5-3.2-3.4-3.2c-1.9,0-3.4,1.5-3.4,3.2v0.8h0.4v0.5l-0.4,0.8v11.5l0.4,0.6v0.4h0.3H54h2.3h2.3h0.4h0.3v-0.4
	l0.4-0.6V33.6l-0.4-0.8v-0.5h0.4V31.5z M64.9,30.9c0-0.9-0.8-1.7-1.7-1.7h-0.1c-1,0-1.7,0.7-1.7,1.7v1.4h0.4v0.5l-0.4,0.8v11.5
	l0.4,0.6v0.4H62h0.4h1.4h0.5h0.2v-0.4l0.4-0.6V33.6l-0.4-0.8v-0.5h0.4V30.9z M68.3,25.7l0.6-1.9H43.6l0.7,1.9H68.3z M82.3,102.2
	c-1.5-0.4-3.3-0.6-5.8-0.6c-4.5,0-6.6,0.7-9,1.6c-2.6,0.9-5.6,1.9-11.2,1.9c-5.7,0-8.6-1-11.2-1.9c-2.4-0.8-4.5-1.6-9-1.6
	c-2.5,0-4.3,0.2-5.8,0.6c7.7,4.4,16.6,6.9,26,6.9C65.7,109,74.6,106.5,82.3,102.2 M90.3,96.6c-1.9-0.4-3.4-0.9-4.8-1.4
	c-2.4-0.8-4.5-1.6-9-1.6c-4.5,0-6.6,0.7-9,1.6c-2.6,0.9-5.6,1.9-11.2,1.9c-5.7,0-8.6-1-11.2-1.9c-2.4-0.8-4.5-1.6-9-1.6
	s-6.6,0.7-9,1.6c-1.4,0.5-2.9,1-4.8,1.4c1.2,1,2.5,2,3.8,2.9c2.3-0.8,5.2-1.5,9.9-1.5c5.7,0,8.6,1,11.2,1.9c2.4,0.8,4.5,1.6,9,1.6
	c4.5,0,6.6-0.7,9-1.6c2.6-0.9,5.6-1.9,11.2-1.9c4.8,0,7.6,0.7,10,1.5C87.8,98.6,89,97.7,90.3,96.6 M109,56.3
	c0-29.1-23.6-52.8-52.8-52.8C27.1,3.5,3.5,27.1,3.5,56.3c0,14.5,5.9,27.7,15.4,37.3c2.5-0.3,4.1-0.8,5.9-1.4
	c2.6-0.9,5.6-1.9,11.2-1.9c5.7,0,8.6,1,11.2,1.9c2.4,0.8,4.5,1.6,9,1.6c4.5,0,6.6-0.7,9-1.6c2.6-0.9,5.6-1.9,11.2-1.9
	c5.7,0,8.6,1,11.3,1.9c1.8,0.6,3.4,1.2,5.9,1.4C103.2,84,109,70.8,109,56.3 M112.5,56.3c0,31.1-25.2,56.3-56.3,56.3
	C25.2,112.5,0,87.3,0,56.3C0,25.2,25.2,0,56.3,0C87.3,0,112.5,25.2,112.5,56.3"/>
<g>
	<g>
		<path fill="#666666" d="M146.1,32c0.3,0,0.4,0.1,0.4,0.4v1.3c0,0.3-0.1,0.4-0.4,0.4h-6.4c-2.5,0-3.7,0.9-3.7,2.5v0.5
			c0,1.5,0.5,2.2,2.1,2.9l6.2,2.6c2.5,1,3.3,2.5,3.3,4.9v0.9c0,1.7-0.6,2.9-1.5,3.6c-0.4,0.4-1,0.7-1.6,0.9
			c-1.4,0.4-2.6,0.5-4.4,0.5c-2.4,0-4.7-0.1-6.9-0.4c-0.2-0.1-0.3-0.2-0.3-0.5v-1.3c0-0.3,0.1-0.4,0.4-0.4h7.8
			c2.5,0,3.7-0.7,3.7-2.5v-0.5c0-1.6-0.5-2.4-2.2-3.1l-6.7-2.7c-2-0.8-2.7-2.4-2.7-4.8v-0.7c0-1.7,0.6-2.9,1.4-3.6
			c0.4-0.4,1-0.6,1.6-0.8c1.4-0.4,2.6-0.5,4.4-0.5C141.9,31.6,143.8,31.7,146.1,32z"/>
		<path fill="#666666" d="M161.1,39.1c0.8,1,1.3,3,1.3,6v0.8c0,0.6-0.2,0.8-1,0.8h-9c0,1.7,0.3,2.9,0.8,3.5s1.5,0.9,3,0.9h4.7
			c0.3,0,0.4,0.1,0.4,0.4v1.3c0,0.3-0.1,0.4-0.4,0.5c-1.3,0.2-2.8,0.3-4.8,0.3c-2.6,0-4.4-0.5-5.2-1.5c-0.8-1.1-1.3-3.2-1.3-6.4
			s0.4-5.3,1.3-6.4c0.8-1.1,2.6-1.6,5.2-1.6C158.5,37.6,160.2,38.1,161.1,39.1z M153,40.9c-0.5,0.6-0.7,1.8-0.8,3.6h7.4
			c0-1.8-0.3-3-0.7-3.6S157.5,40,156,40C154.5,40,153.5,40.3,153,40.9z"/>
		<path fill="#666666" d="M175.2,37.8c0.3,0,0.4,0.2,0.4,0.5v1.2c0,0.3-0.1,0.4-0.4,0.4h-4.3c-1.7,0-2.7,0.3-3.2,1.1
			s-0.7,2.2-0.7,4.5c0,2.3,0.2,3.8,0.7,4.5s1.5,1.1,3.2,1.1h4.3c0.3,0,0.4,0.1,0.4,0.4v1.2c0,0.3-0.1,0.5-0.4,0.5
			c-1.3,0.2-2.7,0.3-4.3,0.3c-2.8,0-4.4-0.3-5.4-1.6c-1-1.3-1.2-3-1.2-6.3c0-3.3,0.2-5.1,1.2-6.3c1-1.3,2.5-1.6,5.4-1.6
			C172.5,37.6,173.9,37.7,175.2,37.8z"/>
		<path fill="#666666" d="M185.3,37.9c0.3,0.1,0.4,0.3,0.4,0.5v1.2c0,0.3-0.1,0.4-0.5,0.4h-2.5c-2,0-2.5,0.3-2.5,1.6v11.3
			c0,0.3-0.1,0.4-0.4,0.4H178c-0.3,0-0.4-0.1-0.4-0.4V40.9c0-1.2,0.5-2.1,1.1-2.6c0.3-0.2,0.7-0.4,1.1-0.5c0.9-0.3,1.4-0.3,2.3-0.3
			C183.7,37.6,184.7,37.7,185.3,37.9z"/>
		<path fill="#666666" d="M198.4,39.1c0.8,1,1.3,3,1.3,6v0.8c0,0.6-0.2,0.8-1,0.8h-9c0,1.7,0.3,2.9,0.8,3.5s1.5,0.9,3,0.9h4.7
			c0.3,0,0.4,0.1,0.4,0.4v1.3c0,0.3-0.1,0.4-0.4,0.5c-1.3,0.2-2.8,0.3-4.8,0.3c-2.6,0-4.4-0.5-5.2-1.5c-0.8-1.1-1.3-3.2-1.3-6.4
			s0.4-5.3,1.3-6.4c0.8-1.1,2.6-1.6,5.2-1.6C195.9,37.6,197.6,38.1,198.4,39.1z M190.4,40.9c-0.5,0.6-0.7,1.8-0.8,3.6h7.4
			c0-1.8-0.3-3-0.7-3.6s-1.4-0.9-2.9-0.9C191.9,40,190.9,40.3,190.4,40.9z"/>
		<path fill="#666666" d="M205.2,33.4c0.3-0.1,0.5,0,0.5,0.4v4h3c0.3,0,0.5,0.1,0.5,0.4v1.3c0,0.3-0.1,0.4-0.5,0.4h-3v9.6
			c0,1.3,0.3,1.5,1.8,1.5h1.4c0.3,0,0.5,0.1,0.5,0.4v1.4c0,0.3-0.1,0.4-0.4,0.5c-0.5,0.1-1,0.2-1.6,0.2c-1.1,0-1.5,0-2.4-0.2
			c-1.3-0.3-1.8-1.1-2-3V39.9h-1.6c-0.3,0-0.4-0.1-0.4-0.4v-1.3c0-0.3,0.1-0.4,0.4-0.4h1.6v-3.4c0-0.3,0.1-0.4,0.4-0.5L205.2,33.4z"
			/>
		<path fill="#666666" d="M222.9,42v10c0,0.4-0.2,0.7-0.5,0.8c-1.1,0.4-3.2,0.6-6.3,0.6c-2,0-3.4-0.3-4.2-0.9
			c-0.8-0.6-1.3-1.8-1.3-3.7c0-3.3,1.6-4.4,5-4.4l4.6,0v-1.9c0-1.8-1.1-2.6-3.7-2.6h-4.3c-0.3,0-0.4-0.1-0.4-0.4v-1.2
			c0-0.3,0.1-0.4,0.4-0.5c1.3-0.2,2.8-0.3,4.3-0.3C220.9,37.6,222.9,38.9,222.9,42z M220.2,46.6h-4.5c-1.6,0-2.4,0.6-2.4,2.1
			c0,1.8,0.9,2.3,3.3,2.3c1.6,0,2.8-0.1,3.6-0.3V46.6z"/>
		<path fill="#666666" d="M233.4,37.9c0.3,0.1,0.4,0.3,0.4,0.5v1.2c0,0.3-0.1,0.4-0.5,0.4h-2.5c-2,0-2.5,0.3-2.5,1.6v11.3
			c0,0.3-0.1,0.4-0.4,0.4h-1.8c-0.3,0-0.4-0.1-0.4-0.4V40.9c0-1.2,0.5-2.1,1.1-2.6c0.3-0.2,0.7-0.4,1.1-0.5c0.9-0.3,1.4-0.3,2.3-0.3
			C231.7,37.6,232.8,37.7,233.4,37.9z"/>
		<path fill="#666666" d="M237.8,37.7c0.3,0,0.4,0.1,0.4,0.4v14.7c0,0.3-0.1,0.4-0.4,0.4H236c-0.3,0-0.4-0.1-0.4-0.4V38.1
			c0-0.3,0.1-0.4,0.4-0.4H237.8z M240.7,31.7c0.2,0,0.3,0.1,0.3,0.3v0.2c0,0.1-0.1,0.3-0.1,0.3l-4,3.6c-0.1,0.1-0.3,0.1-0.4,0
			l-0.5-0.4c-0.1-0.1-0.2-0.3-0.1-0.4l2.1-3.4c0.1-0.1,0.2-0.2,0.3-0.2H240.7z"/>
		<path fill="#666666" d="M252.6,42v10c0,0.4-0.2,0.7-0.5,0.8c-1.1,0.4-3.2,0.6-6.3,0.6c-2,0-3.4-0.3-4.2-0.9
			c-0.8-0.6-1.3-1.8-1.3-3.7c0-3.3,1.6-4.4,5-4.4l4.6,0v-1.9c0-1.8-1.1-2.6-3.7-2.6h-4.3c-0.3,0-0.4-0.1-0.4-0.4v-1.2
			c0-0.3,0.1-0.4,0.4-0.5c1.3-0.2,2.8-0.3,4.3-0.3C250.6,37.6,252.6,38.9,252.6,42z M249.9,46.6h-4.5c-1.6,0-2.4,0.6-2.4,2.1
			c0,1.8,0.9,2.3,3.3,2.3c1.6,0,2.8-0.1,3.6-0.3V46.6z"/>
		<path fill="#666666" d="M273.5,31.8c0.3,0,0.4,0.1,0.4,0.4v20.3c0,0.3-0.1,0.4-0.5,0.5c-2,0.3-4,0.5-5.9,0.5
			c-2.3,0-3.7-0.3-4.7-0.9c-1.5-1.1-1.9-3.1-1.9-6.9c0-3.2,0.4-5.3,1.3-6.4s2.6-1.6,5.2-1.6c1.5,0,2.8,0.1,3.8,0.2v-5.6
			c0-0.3,0.1-0.4,0.4-0.4H273.5z M271.2,40h-3.6c-1.7,0-2.8,0.3-3.2,1.1c-0.5,0.7-0.7,2.2-0.7,4.5c0,2.3,0.2,3.8,0.7,4.5
			c0.5,0.7,1.5,1.1,3.2,1.1c1.2,0,2.4-0.1,3.6-0.2V40z"/>
		<path fill="#666666" d="M287.9,39.1c0.8,1,1.3,3,1.3,6v0.8c0,0.6-0.2,0.8-1,0.8h-9c0,1.7,0.3,2.9,0.8,3.5s1.5,0.9,3,0.9h4.7
			c0.3,0,0.4,0.1,0.4,0.4v1.3c0,0.3-0.1,0.4-0.4,0.5c-1.3,0.2-2.8,0.3-4.8,0.3c-2.6,0-4.4-0.5-5.2-1.5c-0.8-1.1-1.3-3.2-1.3-6.4
			s0.4-5.3,1.3-6.4c0.8-1.1,2.6-1.6,5.2-1.6C285.4,37.6,287.1,38.1,287.9,39.1z M279.9,40.9c-0.5,0.6-0.7,1.8-0.8,3.6h7.4
			c0-1.8-0.3-3-0.7-3.6s-1.4-0.9-2.9-0.9C281.4,40,280.4,40.3,279.9,40.9z"/>
	</g>
	<g>
		<path fill="#666666" d="M148.6,58.5c0.3,0,0.5,0.1,0.5,0.4v3.7c0,0.3-0.1,0.4-0.5,0.4h-9.9v4.4h9.1c0.3,0,0.5,0.1,0.5,0.4v3.5
			c0,0.3-0.1,0.4-0.5,0.4h-9.1v4.3h9.9c0.3,0,0.5,0.1,0.5,0.4v3.7c0,0.3-0.1,0.4-0.5,0.4h-14.7c-0.3,0-0.4-0.1-0.4-0.5V59
			c0-0.3,0.1-0.5,0.4-0.5H148.6z"/>
		<path fill="#666666" d="M162.8,65c0.3,0.1,0.5,0.3,0.5,0.6v2.8c0,0.3-0.2,0.5-0.5,0.5h-4.8c-1.1,0-1.8,0.3-2.1,0.8
			c-0.3,0.5-0.5,1.6-0.5,3.2c0,1.6,0.2,2.6,0.5,3.2c0.3,0.5,1.1,0.8,2.1,0.8h4.8c0.3,0,0.5,0.1,0.5,0.5v2.8c0,0.3-0.2,0.5-0.5,0.6
			c-1.2,0.3-2.8,0.5-4.8,0.5c-3.3,0-5-0.4-6.1-1.7c-1.1-1.3-1.4-3.1-1.4-6.6c0-2.8,0.2-4.4,0.8-5.7c1-2,2.8-2.4,6.7-2.5
			C159.9,64.5,161.5,64.7,162.8,65z"/>
		<path fill="#666666" d="M171.8,64.5c3,0,5.1,0.5,6.1,1.7c1,1.1,1.5,3.3,1.5,6.6c0,3.3-0.5,5.5-1.5,6.6c-1,1.1-3,1.6-6.1,1.6
			c-3,0-5.1-0.5-6.1-1.6c-1-1.1-1.5-3.3-1.5-6.6c0-3.3,0.5-5.5,1.5-6.6C166.7,65.1,168.8,64.5,171.8,64.5z M171.8,68.8
			c-1.1,0-1.8,0.3-2.1,0.8c-0.3,0.5-0.5,1.6-0.5,3.2s0.2,2.6,0.5,3.2c0.3,0.5,1.1,0.8,2.1,0.8c1.1,0,1.8-0.3,2.1-0.8
			c0.3-0.5,0.5-1.6,0.5-3.2s-0.2-2.6-0.5-3.2C173.6,69,172.9,68.8,171.8,68.8z"/>
		<path fill="#666666" d="M194.3,65.9c1.1,1.1,1.4,2.6,1.4,5.6v8.9c0,0.3-0.1,0.5-0.4,0.5h-4.1c-0.3,0-0.4-0.1-0.4-0.5V73
			c0-2.1,0-2.9-0.5-3.6s-0.9-0.6-2.3-0.6h-1.9v11.5c0,0.3-0.1,0.5-0.4,0.5h-4.2c-0.3,0-0.4-0.1-0.4-0.5V65.5c0-0.3,0.1-0.4,0.4-0.4
			c1.4-0.3,3.8-0.5,7.3-0.5C191.7,64.5,193.2,64.8,194.3,65.9z"/>
		<path fill="#666666" d="M205,64.5c3,0,5.1,0.5,6.1,1.7c1,1.1,1.5,3.3,1.5,6.6c0,3.3-0.5,5.5-1.5,6.6c-1,1.1-3,1.6-6.1,1.6
			c-3,0-5.1-0.5-6.1-1.6c-1-1.1-1.5-3.3-1.5-6.6c0-3.3,0.5-5.5,1.5-6.6C199.9,65.1,201.9,64.5,205,64.5z M205,68.8
			c-1.1,0-1.8,0.3-2.1,0.8c-0.3,0.5-0.5,1.6-0.5,3.2s0.2,2.6,0.5,3.2c0.3,0.5,1.1,0.8,2.1,0.8c1.1,0,1.8-0.3,2.1-0.8
			c0.3-0.5,0.5-1.6,0.5-3.2s-0.2-2.6-0.5-3.2C206.7,69,206,68.8,205,68.8z"/>
		<path fill="#666666" d="M236.7,70.3v10c0,0.3-0.1,0.5-0.4,0.5h-4.2c-0.3,0-0.4-0.1-0.4-0.5V73c0-1.4-0.1-2.3-0.2-2.9
			c-0.2-1.1-0.7-1.3-2.1-1.3c-0.6,0-1.2,0.1-1.8,0.1c0.2,0.6,0.3,1.5,0.3,2.5l0,8.9c0,0.3-0.1,0.5-0.4,0.5h-4.2
			c-0.3,0-0.4-0.1-0.4-0.5v-8.8c0-1.3-0.2-2-0.4-2.3c-0.3-0.3-0.9-0.5-1.9-0.5h-1.5v11.5c0,0.3-0.1,0.5-0.4,0.5h-4.1
			c-0.3,0-0.4-0.1-0.4-0.5V65.5c0-0.2,0.1-0.4,0.4-0.4c1.4-0.3,3.3-0.5,5.8-0.5c2.3,0,4,0.3,5.3,0.9c1.6-0.6,3.3-0.9,5.1-0.9
			C235.1,64.5,236.7,66.1,236.7,70.3z"/>
		<path fill="#666666" d="M243.4,64.7c0.3,0,0.4,0.1,0.4,0.5v15.2c0,0.3-0.1,0.5-0.4,0.5h-4.1c-0.3,0-0.4-0.1-0.4-0.5V65.1
			c0-0.3,0.1-0.5,0.4-0.5H243.4z M246.5,57.8c0.2,0,0.3,0.1,0.3,0.3v0.2c0,0.1-0.1,0.3-0.1,0.3l-5.5,4.5c-0.1,0.1-0.3,0.1-0.4,0
			l-1.6-0.9c-0.1-0.1-0.2-0.2-0.1-0.4l2.1-3.8c0.1-0.1,0.2-0.2,0.3-0.2H246.5z"/>
		<path fill="#666666" d="M259.4,69.6v9.8c0,0.5-0.2,0.8-0.7,0.9c-2,0.4-4.1,0.6-6.5,0.6c-1.1,0-1.9,0-2.5-0.1
			c-0.6,0-1.3-0.1-1.9-0.3c-1.8-0.6-2.5-1.8-2.7-4.7c0-1.9,0.5-3.2,1.5-3.8c1-0.7,2.5-1,4.7-1l3.1,0v-0.6c0-1.1-0.7-1.7-2.2-1.7
			h-5.6c-0.3,0-0.4-0.1-0.4-0.4v-2.9c0-0.3,0.1-0.4,0.4-0.5c1.6-0.3,3.4-0.5,5.6-0.5C258.5,64.5,259.4,66.6,259.4,69.6z M254.4,74
			h-2.6c-1.4,0-1.8,0.4-1.8,1.5c0,1.1,0.5,1.5,2,1.5c1,0,1.8-0.1,2.4-0.2V74z"/>
	</g>
</g>
</svg>
